# This file uses centimeters as units for non-parametric coordinates.

mtllib BoxWooden.mtl
g default
v 0.902686 1.110027 -1.215377
v -1.095818 -0.936345 -1.211240
v -0.907116 -1.117631 -1.216269
v 1.089808 0.929999 -1.216269
v -0.907569 -1.120049 -1.127890
v 1.093110 0.926954 -1.127206
v 0.903862 1.111230 -1.127276
v -1.097076 -0.935114 -1.127193
v -0.916348 1.129372 -1.101928
v 1.086969 1.129455 0.942134
v 0.898706 1.129383 1.127418
v -1.105274 1.130068 -0.916398
v 0.901822 1.218447 1.124183
v -1.102866 1.218447 -0.915894
v -0.917605 1.213418 -1.100695
v 1.085792 1.217554 0.940932
v 1.085792 -1.217554 0.940932
v -0.917605 -1.213418 -1.100696
v -1.102866 -1.218447 -0.915894
v 0.901822 -1.218447 1.124183
v -1.105274 -1.130068 -0.916398
v 0.898706 -1.129383 1.127418
v 1.086969 -1.129455 0.942134
v -0.916348 -1.129372 -1.101928
v 1.222266 -0.932590 1.107690
v 1.218129 1.109017 -0.895708
v 1.223159 0.924216 -1.080969
v 1.223159 -1.115838 0.923720
v 1.134780 0.924721 -1.083377
v 1.134095 -1.119075 0.920605
v 1.134167 -0.933792 1.108867
v 1.134084 1.110250 -0.894450
v -1.237442 -0.932590 -1.082199
v -1.233305 1.109017 0.921198
v -1.238335 0.924216 1.106459
v -1.238335 -1.115838 -0.898230
v -1.149956 0.924721 1.108867
v -1.149271 -1.119075 -0.895114
v -1.149343 -0.933792 -1.083377
v -1.149259 1.110250 0.919940
v -0.934646 1.090925 1.242477
v 1.106085 -0.913340 1.238339
v 0.921204 -1.098519 1.243368
v -1.117975 0.907036 1.243369
v 0.921706 -1.100927 1.154990
v -1.121212 0.903922 1.154305
v -0.935847 1.092103 1.154377
v 1.107318 -0.912083 1.154293
v -1.270710 1.267379 1.268517
v -1.270709 0.998683 1.000729
v -1.138596 0.993112 1.000037
v -0.995655 1.268327 0.995073
v -0.995814 1.138902 0.996867
v -0.995836 0.999485 1.270455
v -0.992997 0.994952 1.154160
v -1.270710 1.267380 -1.268517
v -1.270710 -1.267380 1.268517
v -1.270710 -1.267379 -1.268517
v 1.270710 1.267379 1.268517
v 1.270710 1.267380 -1.268517
v 1.270710 -1.267380 1.268517
v 1.270710 -1.267379 -1.268517
v -1.270709 0.998683 -1.000729
v -1.270709 -0.998683 1.000729
v -1.270709 -0.998683 -1.000729
v 1.270709 0.998683 1.000729
v 1.270709 0.998683 -1.000729
v 1.270709 -0.998683 1.000729
v 1.270709 -0.998683 -1.000729
v -1.138596 0.993112 -1.000037
v -1.138596 -0.993112 1.000037
v -1.138596 -0.993112 -1.000037
v 1.138596 0.993112 1.000037
v 1.138596 0.993112 -1.000037
v 1.138596 -0.993112 1.000037
v 1.138596 -0.993112 -1.000037
v -0.995655 1.268327 -0.995073
v -0.995655 -1.268327 0.995073
v -0.995655 -1.268327 -0.995073
v 0.995655 1.268327 0.995073
v 0.995655 1.268327 -0.995073
v 0.995655 -1.268327 0.995073
v 0.995655 -1.268327 -0.995073
v -0.995814 1.138902 -0.996867
v -0.995814 -1.138902 0.996867
v -0.995814 -1.138902 -0.996867
v 0.995814 1.138902 0.996867
v 0.995814 1.138902 -0.996867
v 0.995814 -1.138902 0.996867
v 0.995814 -1.138902 -0.996867
v -0.995836 0.999485 -1.270455
v -0.995836 -0.999485 1.270455
v -0.995836 -0.999485 -1.270455
v 0.995836 0.999485 1.270455
v 0.995836 0.999485 -1.270455
v 0.995836 -0.999485 1.270455
v 0.995836 -0.999485 -1.270455
v -0.992997 0.994952 -1.154160
v -0.992997 -0.994952 1.154160
v -0.992997 -0.994952 -1.154160
v 0.992997 0.994952 1.154160
v 0.992997 0.994952 -1.154160
v 0.992997 -0.994952 1.154160
v 0.992997 -0.994952 -1.154160
vt 0.872303 0.475449
vt 0.872303 0.760038
vt 0.863738 0.760038
vt 0.863738 0.475449
vt 0.828968 0.760038
vt 0.828968 0.475449
vt 0.837802 0.475449
vt 0.837802 0.760038
vt 0.934030 0.474298
vt 0.934030 0.758887
vt 0.925466 0.758887
vt 0.925466 0.474298
vt 0.890695 0.758887
vt 0.890695 0.474298
vt 0.899529 0.474298
vt 0.899529 0.758887
vt 0.987992 0.475449
vt 0.987992 0.760038
vt 0.979428 0.760038
vt 0.979428 0.475449
vt 0.944658 0.760038
vt 0.944658 0.475449
vt 0.953491 0.475449
vt 0.953491 0.760038
vt 0.030361 0.129165
vt 0.314950 0.129165
vt 0.314950 0.137729
vt 0.030361 0.137729
vt 0.314950 0.172500
vt 0.030361 0.172500
vt 0.030361 0.163666
vt 0.314950 0.163666
vt 0.026582 0.058722
vt 0.311171 0.058722
vt 0.311171 0.084658
vt 0.026582 0.084658
vt 0.026582 0.049888
vt 0.311171 0.049888
vt 0.311171 0.093223
vt 0.026582 0.093223
vt 0.777929 0.475449
vt 0.777929 0.760038
vt 0.769365 0.760038
vt 0.769365 0.475449
vt 0.803866 0.760038
vt 0.803866 0.475449
vt 0.812700 0.475449
vt 0.812700 0.760038
vt 0.010000 0.465253
vt 0.010001 0.212834
vt 0.036734 0.239478
vt 0.036734 0.438610
vt 0.235459 0.438610
vt 0.262193 0.465253
vt 0.534747 0.314295
vt 0.547892 0.314849
vt 0.547892 0.512466
vt 0.534747 0.513020
vt 0.547823 0.301693
vt 0.746955 0.301693
vt 0.746886 0.314849
vt 0.010000 0.990000
vt 0.037206 0.962634
vt 0.235213 0.962633
vt 0.262419 0.990000
vt 0.010000 0.737144
vt 0.037206 0.764511
vt 0.534747 0.977107
vt 0.534747 0.778984
vt 0.547625 0.778968
vt 0.547625 0.977123
vt 0.547804 0.990000
vt 0.745989 0.977123
vt 0.745811 0.990000
vt 0.010000 0.474769
vt 0.036654 0.502118
vt 0.036654 0.700278
vt 0.010000 0.727626
vt 0.262195 0.474769
vt 0.235541 0.502118
vt 0.987677 0.099674
vt 0.987678 0.298558
vt 0.976104 0.298107
vt 0.976104 0.100124
vt 0.976386 0.088545
vt 0.778510 0.100124
vt 0.778228 0.088545
vt 0.235459 0.239478
vt 0.262193 0.212834
vt 0.497835 0.438610
vt 0.497832 0.239477
vt 0.524566 0.212834
vt 0.524568 0.465253
vt 0.272375 0.465252
vt 0.272374 0.212834
vt 0.299108 0.239477
vt 0.299109 0.438609
vt 0.760031 0.513020
vt 0.746887 0.512466
vt 0.760031 0.314295
vt 0.760031 0.745209
vt 0.746887 0.744655
vt 0.746887 0.547038
vt 0.760031 0.546484
vt 0.534747 0.546484
vt 0.547892 0.547038
vt 0.547892 0.744655
vt 0.534747 0.745209
vt 0.746955 0.525622
vt 0.547823 0.525622
vt 0.547823 0.533882
vt 0.746955 0.533882
vt 0.746955 0.757811
vt 0.547823 0.757811
vt 0.272374 0.989999
vt 0.299580 0.962632
vt 0.497587 0.962634
vt 0.524793 0.990000
vt 0.262419 0.737144
vt 0.235213 0.764511
vt 0.524793 0.737145
vt 0.497587 0.764511
vt 0.299579 0.764509
vt 0.272374 0.737142
vt 0.745989 0.778969
vt 0.758867 0.778984
vt 0.758867 0.977107
vt 0.745779 0.082191
vt 0.547624 0.082191
vt 0.547640 0.069313
vt 0.745763 0.069313
vt 0.745763 0.293433
vt 0.547640 0.293433
vt 0.547624 0.280555
vt 0.745779 0.280555
vt 0.758655 0.280376
vt 0.758655 0.082369
vt 0.745811 0.766092
vt 0.547804 0.766091
vt 0.534747 0.082369
vt 0.534747 0.280376
vt 0.272374 0.727626
vt 0.299723 0.700972
vt 0.497883 0.700972
vt 0.525232 0.727626
vt 0.262195 0.727626
vt 0.235541 0.700278
vt 0.525231 0.475431
vt 0.497882 0.502086
vt 0.299722 0.502086
vt 0.272374 0.475431
vt 0.780832 0.780437
vt 0.780832 0.978420
vt 0.769258 0.978871
vt 0.769258 0.779986
vt 0.778511 0.298107
vt 0.766937 0.298558
vt 0.766936 0.099674
vt 0.990000 0.779986
vt 0.990000 0.978872
vt 0.978426 0.978421
vt 0.978426 0.780437
vt 0.978708 0.768858
vt 0.780550 0.768858
vt 0.778229 0.309686
vt 0.976387 0.309686
vt 0.780550 0.990000
vt 0.978708 0.990000
vn 0.700453 0.713626 0.010225
vn 0.700453 0.713626 0.010225
vn 0.700453 0.713626 0.010225
vn 0.700453 0.713626 0.010225
vn -0.700437 -0.712952 0.032979
vn -0.700437 -0.712952 0.032979
vn -0.700437 -0.712952 0.032979
vn -0.700437 -0.712952 0.032979
vn 0.008473 0.007589 0.999935
vn 0.008473 0.007589 0.999935
vn 0.008473 0.007589 0.999935
vn 0.008473 0.007589 0.999935
vn -0.010225 0.700145 -0.713928
vn -0.010225 0.700145 -0.713928
vn -0.010225 0.700145 -0.713928
vn -0.010225 0.700145 -0.713928
vn -0.032981 -0.700129 0.713254
vn -0.032981 -0.700129 0.713254
vn -0.032981 -0.700129 0.713254
vn -0.032981 -0.700129 0.713254
vn -0.999935 0.008470 -0.007593
vn -0.999935 0.008470 -0.007593
vn -0.999935 0.008470 -0.007593
vn -0.999935 0.008470 -0.007593
vn 0.010227 0.700145 0.713928
vn 0.010227 0.700145 0.713928
vn 0.010227 0.700145 0.713928
vn 0.010227 0.700145 0.713928
vn 0.032981 -0.700129 -0.713254
vn 0.032981 -0.700129 -0.713254
vn 0.032981 -0.700129 -0.713254
vn 0.032981 -0.700129 -0.713254
vn 0.999935 0.008470 0.007593
vn 0.999935 0.008470 0.007593
vn 0.999935 0.008470 0.007593
vn 0.999935 0.008470 0.007593
vn 0.713931 -0.010225 -0.700141
vn 0.713931 -0.010225 -0.700141
vn 0.713931 -0.010225 -0.700141
vn 0.713931 -0.010225 -0.700141
vn -0.713258 -0.032980 0.700126
vn -0.713258 -0.032980 0.700126
vn -0.713258 -0.032980 0.700126
vn -0.713258 -0.032980 0.700126
vn 0.007593 -0.999935 -0.008470
vn 0.007593 -0.999935 -0.008470
vn 0.007593 -0.999935 -0.008470
vn 0.007593 -0.999935 -0.008470
vn -0.008629 0.007411 -0.999935
vn -0.008629 0.007411 -0.999935
vn -0.008629 0.007411 -0.999935
vn -0.008629 0.007411 -0.999935
vn 0.715147 -0.698195 -0.032979
vn 0.715147 -0.698195 -0.032979
vn 0.715147 -0.698195 -0.032979
vn 0.715147 -0.698195 -0.032979
vn -0.715178 0.698868 -0.010224
vn -0.715178 0.698868 -0.010224
vn -0.715178 0.698868 -0.010224
vn -0.715178 0.698868 -0.010224
vn 0.713931 0.010225 -0.700141
vn 0.713931 0.010225 -0.700141
vn 0.713931 0.010225 -0.700141
vn 0.713931 0.010225 -0.700141
vn -0.713258 0.032980 0.700126
vn -0.713258 0.032980 0.700126
vn -0.713258 0.032980 0.700126
vn -0.713258 0.032980 0.700126
vn 0.007593 0.999935 -0.008470
vn 0.007593 0.999935 -0.008470
vn 0.007593 0.999935 -0.008470
vn 0.007593 0.999935 -0.008470
vn -1.000000 -0.000002 -0.000002
vn -1.000000 -0.000002 0.000002
vn -1.000000 -0.000002 0.000002
vn -1.000000 -0.000002 -0.000002
vn -1.000000 -0.000002 -0.000002
vn -1.000000 -0.000002 -0.000002
vn -1.000000 0.000002 -0.000002
vn -1.000000 0.000002 -0.000002
vn -0.005232 0.000000 -0.999986
vn -0.005232 0.000000 -0.999986
vn -0.005232 0.000000 -0.999986
vn -0.005232 0.000000 -0.999986
vn -0.042136 -0.999112 0.000000
vn -0.042136 -0.999112 0.000000
vn -0.042136 -0.999112 0.000000
vn -0.042136 -0.999112 0.000000
vn -0.001727 0.999997 0.001725
vn -0.001719 0.999997 0.001733
vn -0.001719 0.999997 -0.001733
vn -0.001727 0.999997 -0.001725
vn -0.001727 0.999997 0.001725
vn 0.001727 0.999997 0.001725
vn 0.001719 0.999997 0.001733
vn -0.001719 0.999997 0.001733
vn 0.000000 -0.013863 -0.999904
vn 0.000000 -0.013863 -0.999904
vn 0.000000 -0.013863 -0.999904
vn 0.000000 -0.013863 -0.999904
vn 0.999999 -0.001227 0.000000
vn 0.999999 -0.001227 0.000000
vn 0.999999 -0.001227 0.000000
vn 0.999999 -0.001227 0.000000
vn -0.003585 0.003560 0.999987
vn -0.003508 0.003639 0.999987
vn 0.003508 0.003639 0.999987
vn 0.003585 0.003560 0.999987
vn -0.003585 0.003560 0.999987
vn -0.003585 -0.003560 0.999987
vn -0.003508 -0.003639 0.999987
vn -0.003508 0.003639 0.999987
vn 0.999702 0.000000 0.024401
vn 0.999702 0.000000 0.024401
vn 0.999702 0.000000 0.024401
vn 0.999702 0.000000 0.024401
vn 0.000000 -0.999241 0.038943
vn 0.000000 -0.999241 0.038943
vn 0.000000 -0.999241 0.038943
vn 0.000000 -0.999241 0.038943
vn -1.000000 0.000002 -0.000002
vn -1.000000 0.000002 0.000002
vn -1.000000 0.000002 0.000002
vn -1.000000 0.000002 -0.000002
vn 1.000000 -0.000002 -0.000002
vn 1.000000 -0.000002 0.000002
vn 1.000000 -0.000002 0.000002
vn 1.000000 -0.000002 -0.000002
vn 1.000000 0.000002 -0.000002
vn 1.000000 0.000002 0.000002
vn 1.000000 0.000002 0.000002
vn 1.000000 0.000002 -0.000002
vn -1.000000 0.000002 0.000002
vn -1.000000 0.000002 0.000002
vn -1.000000 -0.000002 0.000002
vn -1.000000 -0.000002 0.000002
vn 1.000000 0.000002 -0.000002
vn 1.000000 0.000002 -0.000002
vn 1.000000 -0.000002 -0.000002
vn 1.000000 -0.000002 -0.000002
vn 1.000000 -0.000002 0.000002
vn 1.000000 -0.000002 0.000002
vn 1.000000 0.000002 0.000002
vn 1.000000 0.000002 0.000002
vn -0.005232 0.000000 0.999986
vn -0.005232 0.000000 0.999986
vn -0.005232 0.000000 0.999986
vn -0.005232 0.000000 0.999986
vn 0.005232 0.000000 -0.999986
vn 0.005232 0.000000 -0.999986
vn 0.005232 0.000000 -0.999986
vn 0.005232 0.000000 -0.999986
vn 0.005232 0.000000 0.999986
vn 0.005232 0.000000 0.999986
vn 0.005232 0.000000 0.999986
vn 0.005232 0.000000 0.999986
vn -0.042136 0.999112 0.000000
vn -0.042136 0.999112 0.000000
vn -0.042136 0.999112 0.000000
vn -0.042136 0.999112 0.000000
vn 0.042136 -0.999112 0.000000
vn 0.042136 -0.999112 0.000000
vn 0.042136 -0.999112 0.000000
vn 0.042136 -0.999112 0.000000
vn 0.042136 0.999112 0.000000
vn 0.042136 0.999112 0.000000
vn 0.042136 0.999112 0.000000
vn 0.042136 0.999112 0.000000
vn -0.001727 -0.999997 -0.001725
vn -0.001719 -0.999997 -0.001733
vn -0.001719 -0.999997 0.001733
vn -0.001727 -0.999997 0.001725
vn 0.001727 0.999997 -0.001725
vn 0.001719 0.999997 -0.001733
vn 0.001719 0.999997 0.001733
vn 0.001727 0.999997 0.001725
vn 0.001727 -0.999997 0.001725
vn 0.001719 -0.999997 0.001733
vn 0.001719 -0.999997 -0.001733
vn 0.001727 -0.999997 -0.001725
vn -0.001719 0.999997 -0.001733
vn 0.001719 0.999997 -0.001733
vn 0.001727 0.999997 -0.001725
vn -0.001727 0.999997 -0.001725
vn -0.001719 -0.999997 0.001733
vn 0.001719 -0.999997 0.001733
vn 0.001727 -0.999997 0.001725
vn -0.001727 -0.999997 0.001725
vn -0.001727 -0.999997 -0.001725
vn 0.001727 -0.999997 -0.001725
vn 0.001719 -0.999997 -0.001733
vn -0.001719 -0.999997 -0.001733
vn 0.000000 -0.013863 0.999904
vn 0.000000 -0.013863 0.999904
vn 0.000000 -0.013863 0.999904
vn 0.000000 -0.013863 0.999904
vn 0.000000 0.013863 -0.999904
vn 0.000000 0.013863 -0.999904
vn 0.000000 0.013863 -0.999904
vn 0.000000 0.013863 -0.999904
vn 0.000000 0.013863 0.999904
vn 0.000000 0.013863 0.999904
vn 0.000000 0.013863 0.999904
vn 0.000000 0.013863 0.999904
vn 0.999999 0.001227 0.000000
vn 0.999999 0.001227 0.000000
vn 0.999999 0.001227 0.000000
vn 0.999999 0.001227 0.000000
vn -0.999999 -0.001227 0.000000
vn -0.999999 -0.001227 0.000000
vn -0.999999 -0.001227 0.000000
vn -0.999999 -0.001227 0.000000
vn -0.999999 0.001227 0.000000
vn -0.999999 0.001227 0.000000
vn -0.999999 0.001227 0.000000
vn -0.999999 0.001227 0.000000
vn 0.003585 0.003560 -0.999987
vn 0.003508 0.003639 -0.999987
vn -0.003508 0.003639 -0.999987
vn -0.003585 0.003560 -0.999987
vn 0.003585 -0.003560 0.999987
vn 0.003508 -0.003639 0.999987
vn -0.003508 -0.003639 0.999987
vn -0.003585 -0.003560 0.999987
vn -0.003585 -0.003560 -0.999987
vn -0.003508 -0.003639 -0.999987
vn 0.003508 -0.003639 -0.999987
vn 0.003585 -0.003560 -0.999987
vn -0.003508 0.003639 -0.999987
vn -0.003508 -0.003639 -0.999987
vn -0.003585 -0.003560 -0.999987
vn -0.003585 0.003560 -0.999987
vn 0.003508 0.003639 0.999987
vn 0.003508 -0.003639 0.999987
vn 0.003585 -0.003560 0.999987
vn 0.003585 0.003560 0.999987
vn 0.003585 0.003560 -0.999987
vn 0.003585 -0.003560 -0.999987
vn 0.003508 -0.003639 -0.999987
vn 0.003508 0.003639 -0.999987
vn 0.999702 0.000000 -0.024401
vn 0.999702 0.000000 -0.024401
vn 0.999702 0.000000 -0.024401
vn 0.999702 0.000000 -0.024401
vn -0.999702 0.000000 0.024401
vn -0.999702 0.000000 0.024401
vn -0.999702 0.000000 0.024401
vn -0.999702 0.000000 0.024401
vn -0.999702 0.000000 -0.024401
vn -0.999702 0.000000 -0.024401
vn -0.999702 0.000000 -0.024401
vn -0.999702 0.000000 -0.024401
vn 0.000000 -0.999241 -0.038943
vn 0.000000 -0.999241 -0.038943
vn 0.000000 -0.999241 -0.038943
vn 0.000000 -0.999241 -0.038943
vn 0.000000 0.999241 0.038943
vn 0.000000 0.999241 0.038943
vn 0.000000 0.999241 0.038943
vn 0.000000 0.999241 0.038943
vn 0.000000 0.999241 -0.038943
vn 0.000000 0.999241 -0.038943
vn 0.000000 0.999241 -0.038943
vn 0.000000 0.999241 -0.038943
vn 0.000000 -1.000000 0.000000
vn 0.000000 -1.000000 0.000000
vn 0.000000 -1.000000 0.000000
vn 0.000000 -1.000000 0.000000
vn 0.000000 1.000000 0.000000
vn 0.000000 1.000000 0.000000
vn 0.000000 1.000000 0.000000
vn 0.000000 1.000000 0.000000
vn 0.000000 0.000000 -1.000000
vn 0.000000 0.000000 -1.000000
vn 0.000000 0.000000 -1.000000
vn 0.000000 0.000000 -1.000000
vn -1.000000 0.000000 0.000000
vn -1.000000 0.000000 0.000000
vn -1.000000 0.000000 0.000000
vn -1.000000 0.000000 0.000000
vn 0.000000 0.000000 1.000000
vn 0.000000 0.000000 1.000000
vn 0.000000 0.000000 1.000000
vn 0.000000 0.000000 1.000000
vn 1.000000 0.000000 0.000000
vn 1.000000 0.000000 0.000000
vn 1.000000 0.000000 0.000000
vn 1.000000 0.000000 0.000000
s off
g BoxWooden
usemtl lambert2SG
f 48/1/1 47/2/2 41/3/3 42/4/4
f 46/5/5 45/6/6 43/7/7 44/8/8
f 44/8/9 43/7/10 42/4/11 41/3/12
f 40/9/13 39/10/14 33/11/15 34/12/16
f 38/13/17 37/14/18 35/15/19 36/16/20
f 36/16/21 35/15/22 34/12/23 33/11/24
f 32/17/25 31/18/26 25/19/27 26/20/28
f 30/21/29 29/22/30 27/23/31 28/24/32
f 28/24/33 27/23/34 26/20/35 25/19/36
f 24/25/37 23/26/38 17/27/39 18/28/40
f 22/29/41 21/30/42 19/31/43 20/32/44
f 20/32/45 19/31/46 18/28/47 17/27/48
f 4/33/49 3/34/50 2/35/51 1/36/52
f 6/37/53 5/38/54 3/34/55 4/33/56
f 8/39/57 7/40/58 1/36/59 2/35/60
f 15/41/61 16/42/62 10/43/63 9/44/64
f 13/45/65 14/46/66 12/47/67 11/48/68
f 16/42/69 15/41/70 14/46/71 13/45/72
f 49/49/73 56/50/74 63/51/75 50/52/76
f 49/49/77 50/52/78 64/53/79 57/54/80
f 50/55/81 51/56/82 71/57/83 64/58/84
f 50/59/85 63/60/86 70/61/87 51/56/88
f 49/62/89 52/63/90 77/64/91 56/65/92
f 49/62/93 59/66/94 80/67/95 52/63/96
f 52/68/97 80/69/98 87/70/99 53/71/100
f 52/72/101 53/71/102 84/73/103 77/74/104
f 49/75/105 54/76/106 94/77/107 59/78/108
f 49/75/109 57/79/110 92/80/111 54/76/112
f 54/81/113 92/82/114 99/83/115 55/84/116
f 54/85/117 55/84/118 101/86/119 94/87/120
f 64/53/121 65/88/122 58/89/123 57/54/124
f 66/90/125 67/91/126 60/92/127 59/93/128
f 61/94/129 62/95/130 69/96/131 68/97/132
f 58/89/133 65/88/134 63/51/135 56/50/136
f 61/94/137 68/97/138 66/90/139 59/93/140
f 60/92/141 67/91/142 69/96/143 62/95/144
f 65/98/145 72/99/146 70/61/147 63/100/148
f 68/101/149 75/102/150 73/103/151 66/104/152
f 67/105/153 74/106/154 76/107/155 69/108/156
f 71/57/157 72/99/158 65/109/159 64/110/160
f 73/103/161 74/106/162 67/111/163 66/112/164
f 68/113/165 69/114/166 76/107/167 75/102/168
f 58/115/169 79/116/170 78/117/171 57/118/172
f 60/119/173 81/120/174 80/67/175 59/66/176
f 61/121/177 82/122/178 83/123/179 62/124/180
f 77/64/181 81/120/182 60/119/183 56/65/184
f 78/117/185 82/122/186 61/121/187 57/118/188
f 58/115/189 62/124/190 83/123/191 79/116/192
f 84/73/193 88/125/194 81/126/195 77/127/196
f 85/128/197 89/129/198 82/130/199 78/131/200
f 79/132/201 83/133/202 90/134/203 86/135/204
f 79/136/205 86/135/206 85/128/207 78/137/208
f 81/138/209 88/125/210 87/70/211 80/139/212
f 82/140/213 89/129/214 90/134/215 83/141/216
f 60/142/217 95/143/218 91/144/219 56/145/220
f 61/146/221 96/147/222 92/80/223 57/79/224
f 58/148/225 93/149/226 97/150/227 62/151/228
f 91/144/229 93/149/230 58/148/231 56/145/232
f 94/77/233 96/147/234 61/146/235 59/78/236
f 60/142/237 62/151/238 97/150/239 95/143/240
f 98/152/241 100/153/242 93/154/243 91/155/244
f 101/86/245 103/156/246 96/157/247 94/158/248
f 95/159/249 97/160/250 104/161/251 102/162/252
f 95/163/253 102/162/254 98/152/255 91/164/256
f 96/165/257 103/156/258 99/83/259 92/166/260
f 93/167/261 100/153/262 104/161/263 97/168/264
f 86/135/265 90/134/266 89/129/267 85/128/268
f 53/71/269 87/70/270 88/125/271 84/73/272
f 102/162/273 104/161/274 100/153/275 98/152/276
f 72/99/277 71/57/278 51/56/279 70/61/280
f 103/156/281 101/86/282 55/84/283 99/83/284
f 76/107/285 74/106/286 73/103/287 75/102/288
